<svg width="92" height="92" viewBox="0 0 92 92" fill="none" xmlns="http://www.w3.org/2000/svg">
<circle cx="46" cy="46" r="46" fill="#E9E9EC"/>
<path d="M61.2823 53.7221H31.6434C31.6472 52.7881 31.349 51.8778 30.7934 51.1269C30.2378 50.3761 29.4544 49.8249 28.56 49.5555V29.4582C29.2507 29.264 29.8796 28.8948 30.3857 28.3862C30.8918 27.8777 31.2581 27.2471 31.4489 26.5554H45.3378C45.5406 27.2433 45.9126 27.8693 46.4196 28.3764C46.9267 28.8835 47.5528 29.2554 48.2406 29.4582V35.9443L45.6434 38.5554L44.2545 37.1666C44.1409 37.0519 44.0057 36.9609 43.8567 36.8988C43.7077 36.8367 43.5479 36.8047 43.3864 36.8047C43.225 36.8047 43.0652 36.8367 42.9162 36.8988C42.7672 36.9609 42.632 37.0519 42.5184 37.1666C42.4033 37.2814 42.312 37.4178 42.2497 37.5679C42.1875 37.718 42.1554 37.879 42.1554 38.0416C42.1554 38.2041 42.1875 38.3651 42.2497 38.5152C42.312 38.6654 42.4033 38.8017 42.5184 38.9166L43.9073 40.3054L42.5184 41.6943C42.4033 41.8092 42.312 41.9455 42.2497 42.0957C42.1875 42.2458 42.1554 42.4068 42.1554 42.5693C42.1554 42.7319 42.1875 42.8928 42.2497 43.043C42.312 43.1931 42.4033 43.3295 42.5184 43.4443C42.632 43.559 42.7672 43.65 42.9162 43.7121C43.0652 43.7742 43.225 43.8061 43.3864 43.8061C43.5479 43.8061 43.7077 43.7742 43.8567 43.7121C44.0057 43.65 44.1409 43.559 44.2545 43.4443L45.6434 42.0554L48.6017 45.0138C48.7154 45.1284 48.8506 45.2194 48.9996 45.2815C49.1486 45.3436 49.3084 45.3756 49.4698 45.3756C49.6312 45.3756 49.791 45.3436 49.94 45.2815C50.089 45.2194 50.2242 45.1284 50.3378 45.0138L53.4073 42.0416L54.7962 43.4304C54.9076 43.5592 55.0444 43.6635 55.198 43.7369C55.3516 43.8103 55.5187 43.8512 55.6888 43.857C55.859 43.8628 56.0285 43.8334 56.1867 43.7706C56.345 43.7078 56.4886 43.613 56.6085 43.4922C56.7284 43.3713 56.822 43.227 56.8835 43.0683C56.945 42.9095 56.9731 42.7398 56.9659 42.5697C56.9588 42.3996 56.9166 42.2328 56.842 42.0798C56.7673 41.9268 56.6619 41.7908 56.5323 41.6804L55.1434 40.2916L56.5323 38.9027C56.6474 38.7878 56.7386 38.6515 56.8009 38.5013C56.8632 38.3512 56.8953 38.1902 56.8953 38.0277C56.8953 37.8651 56.8632 37.7042 56.8009 37.554C56.7386 37.4039 56.6474 37.2675 56.5323 37.1527C56.4187 37.038 56.2834 36.947 56.1345 36.8849C55.9855 36.8228 55.8256 36.7909 55.6642 36.7909C55.5028 36.7909 55.343 36.8228 55.194 36.8849C55.045 36.947 54.9098 37.038 54.7962 37.1527L53.4073 38.5416L50.8239 35.9443V29.4582C51.5405 29.2442 52.1891 28.8478 52.7065 28.3079C53.2239 27.7679 53.5922 27.1029 53.7755 26.3779C53.9587 25.6529 53.9506 24.8928 53.7519 24.1718C53.5532 23.4509 53.1708 22.7939 52.642 22.2651C52.1132 21.7364 51.4562 21.3539 50.7353 21.1552C50.0144 20.9566 49.2542 20.9484 48.5292 21.1317C47.8042 21.3149 47.1392 21.6833 46.5993 22.2006C46.0593 22.718 45.663 23.3667 45.4489 24.0832H31.56C31.342 23.3744 30.9452 22.7337 30.4078 22.2227C29.8704 21.7118 29.2105 21.3478 28.4917 21.1657C27.7728 20.9837 27.0192 20.9899 26.3034 21.1835C25.5876 21.3772 24.9337 21.7519 24.4047 22.2715C23.8756 22.7911 23.4893 23.4382 23.2828 24.1504C23.0764 24.8627 23.0567 25.616 23.2258 26.338C23.3949 27.0601 23.747 27.7264 24.2483 28.2728C24.7496 28.8193 25.3831 29.2275 26.0878 29.4582V49.5832C25.1934 49.8527 24.4101 50.4039 23.8545 51.1547C23.2988 51.9056 23.0007 52.8158 23.0045 53.7499C23.0045 54.1527 23.0045 54.5277 23.0045 54.861C22.9985 54.8978 22.9985 54.9353 23.0045 54.9721V62.3888C23.0155 64.674 23.9301 66.8621 25.5486 68.4754C27.1671 70.0888 29.3581 70.9963 31.6434 70.9999H61.2823C63.5735 70.9999 65.7708 70.0898 67.3909 68.4697C69.011 66.8495 69.9212 64.6522 69.9212 62.361C69.9212 60.0699 69.011 57.8725 67.3909 56.2524C65.7708 54.6323 63.5735 53.7221 61.2823 53.7221ZM51.5601 40.2916L49.5323 42.3888L47.4628 40.2916L49.5323 38.2082L51.5601 40.2916ZM61.2823 66.0555C60.5477 66.0582 59.8288 65.8427 59.2168 65.4363C58.6049 65.0299 58.1274 64.4509 57.845 63.7727C57.5626 63.0945 57.488 62.3477 57.6307 61.6271C57.7733 60.9065 58.1268 60.2444 58.6462 59.725C59.1657 59.2055 59.8277 58.8521 60.5484 58.7094C61.269 58.5668 62.0158 58.6414 62.694 58.9238C63.3721 59.2062 63.9511 59.6836 64.3576 60.2956C64.764 60.9075 64.9795 61.6264 64.9767 62.361C64.9767 63.3409 64.5875 64.2806 63.8947 64.9734C63.2018 65.6662 62.2621 66.0555 61.2823 66.0555ZM27.9489 62.361C27.9462 61.6264 28.1617 60.9075 28.5681 60.2956C28.9745 59.6836 29.5535 59.2062 30.2317 58.9238C30.9099 58.6414 31.6567 58.5668 32.3773 58.7094C33.0979 58.8521 33.76 59.2055 34.2794 59.725C34.7989 60.2444 35.1523 60.9065 35.295 61.6271C35.4376 62.3477 35.363 63.0945 35.0806 63.7727C34.7982 64.4509 34.3208 65.0299 33.7088 65.4363C33.0969 65.8427 32.378 66.0582 31.6434 66.0555C30.6647 66.0518 29.7271 65.6614 29.035 64.9694C28.343 64.2773 27.9526 63.3397 27.9489 62.361ZM55.1017 62.361C55.1017 63.0951 54.8839 63.8126 54.4758 64.4227C54.0677 65.0328 53.4877 65.5081 52.8093 65.7884C52.1309 66.0687 51.3845 66.1413 50.6648 65.9971C49.9451 65.8528 49.2844 65.4983 48.7663 64.9783C48.2482 64.4583 47.8961 63.7962 47.7546 63.0759C47.6131 62.3557 47.6885 61.6096 47.9713 60.9323C48.2541 60.2549 48.7316 59.6767 49.3433 59.2709C49.9549 58.8651 50.6733 58.6499 51.4073 58.6527C52.3884 58.6564 53.3281 59.0487 54.0205 59.7437C54.7129 60.4388 55.1017 61.3799 55.1017 62.361ZM45.2267 62.361C45.2267 63.0945 45.0092 63.8114 44.6018 64.4213C44.1943 65.0311 43.6151 65.5064 42.9375 65.7871C42.2599 66.0678 41.5143 66.1412 40.7949 65.9981C40.0756 65.855 39.4148 65.5018 38.8962 64.9832C38.3776 64.4646 38.0244 63.8038 37.8813 63.0845C37.7382 62.3651 37.8117 61.6195 38.0923 60.9419C38.373 60.2643 38.8483 59.6851 39.4581 59.2777C40.068 58.8702 40.7849 58.6527 41.5184 58.6527C42.5019 58.6527 43.4451 59.0434 44.1406 59.7388C44.836 60.4343 45.2267 61.3775 45.2267 62.361Z" fill="#0B7572"/>
<path d="M31.6432 63.5977C32.3259 63.5977 32.8793 63.0443 32.8793 62.3616C32.8793 61.6789 32.3259 61.1255 31.6432 61.1255C30.9605 61.1255 30.4071 61.6789 30.4071 62.3616C30.4071 63.0443 30.9605 63.5977 31.6432 63.5977Z" fill="#0B7572"/>
<path d="M41.5179 63.5977C42.2005 63.5977 42.754 63.0443 42.754 62.3616C42.754 61.6789 42.2005 61.1255 41.5179 61.1255C40.8352 61.1255 40.2817 61.6789 40.2817 62.3616C40.2817 63.0443 40.8352 63.5977 41.5179 63.5977Z" fill="#0B7572"/>
<path d="M51.407 63.5977C52.0897 63.5977 52.6431 63.0443 52.6431 62.3616C52.6431 61.6789 52.0897 61.1255 51.407 61.1255C50.7243 61.1255 50.1709 61.6789 50.1709 62.3616C50.1709 63.0443 50.7243 63.5977 51.407 63.5977Z" fill="#0B7572"/>
<path d="M61.2818 63.5977C61.9645 63.5977 62.5179 63.0443 62.5179 62.3616C62.5179 61.6789 61.9645 61.1255 61.2818 61.1255C60.5991 61.1255 60.0457 61.6789 60.0457 62.3616C60.0457 63.0443 60.5991 63.5977 61.2818 63.5977Z" fill="#0B7572"/>
</svg>
